<?xml version="1.0" encoding="UTF-8"?>
<svg version="1.1" xmlns="http://www.w3.org/2000/svg" width="500" height="500">
<path d="M0 0 C165 0 330 0 500 0 C500 165 500 330 500 500 C335 500 170 500 0 500 C0 335 0 170 0 0 Z " fill="#1D1F26" transform="translate(0,0)"/>
<path d="M0 0 C16.3860269 -0.04681352 32.77203196 -0.08203454 49.15810966 -0.10362434 C56.7672131 -0.1139173 64.37627487 -0.12793957 71.98535156 -0.15087891 C78.62087792 -0.17087363 85.25637409 -0.18373082 91.89192975 -0.18817699 C95.40226361 -0.19077411 98.91251115 -0.19683675 102.42281723 -0.21146011 C106.35074172 -0.22768902 110.27858334 -0.2279758 114.20654297 -0.22705078 C115.358134 -0.23424133 116.50972504 -0.24143188 117.69621277 -0.24884033 C131.95013008 -0.21263309 144.63942685 3.02907867 155.26171875 13.1015625 C158.35295418 16.47760839 160.76843918 20.00833487 163 24 C163.48855469 24.84949219 163.97710937 25.69898438 164.48046875 26.57421875 C169.55704822 36.77003803 169.72809912 49.51311291 166.9375 60.5 C162.20504038 73.23098293 153.18295248 83.19761243 141 89 C126.28607501 94.78723773 110.21729126 93.46763552 94.69696045 93.2746582 C91.00249446 93.23319233 87.30791456 93.21535548 83.61328125 93.1953125 C76.40854867 93.1528543 69.20437107 93.0849 62 93 C62.30548001 91.43463856 62.61311931 89.86969843 62.92163086 88.30493164 C63.09270859 87.43340958 63.26378632 86.56188751 63.44004822 85.66395569 C64.30709712 81.53899365 65.41883494 77.49292951 66.5625 73.4375 C66.78357422 72.63248047 67.00464844 71.82746094 67.23242188 70.99804688 C68.87210004 65.12789996 68.87210004 65.12789996 70 64 C71.73746348 63.90295718 73.47882289 63.87484082 75.21899414 63.87402344 C76.89192284 63.86831329 76.89192284 63.86831329 78.59864807 63.86248779 C79.81519577 63.86146057 81.03174347 63.86043335 82.28515625 63.859375 C84.84310781 63.84103939 87.40105075 63.8214684 89.95898438 63.80078125 C94.00551303 63.77049064 98.0517359 63.74767077 102.09838867 63.74951172 C105.99447787 63.74617051 109.8892893 63.7115646 113.78515625 63.671875 C114.98753433 63.6789447 116.18991241 63.6860144 117.4287262 63.69329834 C124.41459057 63.59247124 129.76265911 62.93905995 135 58 C138.74336448 52.81096193 139.71376485 48.32191726 139 42 C136.94903933 36.66750227 134.25206159 33.42293561 129.44706726 30.38696289 C124.97483333 28.58751367 121.41448277 28.75411047 116.65942383 28.99609375 C114.74586091 29.0648707 112.83226985 29.13286769 110.9186554 29.20019531 C109.40288123 29.26092224 109.40288123 29.26092224 107.85648537 29.32287598 C102.43910897 29.52004077 97.01953775 29.60172607 91.59960938 29.69921875 C84.72988478 29.82418045 77.86848823 29.98229345 71.00463867 30.29931641 C29.34197363 32.15838035 29.34197363 32.15838035 15.78913021 20.09481812 C9.82011043 14.33545234 4.5343479 7.94267845 0 1 C0 0.67 0 0.34 0 0 Z " fill="#FDFDFD" transform="translate(166,135)"/>
<path d="M0 0 C9.57 0 19.14 0 29 0 C26.74598071 12.39710611 26.74598071 12.39710611 25.703125 16.5859375 C25.46980469 17.52501953 25.23648438 18.46410156 24.99609375 19.43164062 C24.74988281 20.40294922 24.50367188 21.37425781 24.25 22.375 C23.98832031 23.41591797 23.72664063 24.45683594 23.45703125 25.52929688 C21.53860545 33.0790826 19.44124658 40.56535371 17.25756836 48.04199219 C15.0004915 55.83500256 13.02123323 63.68852039 11.09179688 71.56835938 C10.86169922 72.50744141 10.63160156 73.44652344 10.39453125 74.4140625 C10.19706299 75.2282666 9.99959473 76.0424707 9.79614258 76.88134766 C8.59058307 81.60376935 7.29134147 86.30041914 6 91 C17.28390884 90.91535474 28.56768003 90.82037884 39.85139179 90.71247292 C45.0917379 90.66267867 50.33206547 90.61634799 55.57250977 90.578125 C60.63655147 90.54105802 65.7004315 90.49464187 70.76433372 90.44193649 C72.68943615 90.4235057 74.61457307 90.40835672 76.53972816 90.39665604 C97.85638313 90.26254414 114.33129927 87.66870073 130 72 C130 87.51 130 103.02 130 119 C76.87 119 23.74 119 -31 119 C-30.38218838 114.05750704 -29.87379222 109.99826455 -28.58203125 105.33984375 C-28.30029053 104.31076904 -28.0185498 103.28169434 -27.72827148 102.22143555 C-27.42606689 101.13773682 -27.1238623 100.05403809 -26.8125 98.9375 C-26.17361681 96.6096115 -25.53561256 94.28148162 -24.8984375 91.953125 C-24.57842773 90.78716797 -24.25841797 89.62121094 -23.92871094 88.41992188 C-22.55301948 83.35402124 -21.24532493 78.2712547 -19.9375 73.1875 C-18.0886751 66.02788283 -16.13346019 58.91088517 -14.0625 51.8125 C-11.28352135 42.28417923 -8.86974618 32.67674844 -6.53540039 23.03051758 C-6.12729126 21.36025513 -6.12729126 21.36025513 -5.7109375 19.65625 C-5.47681152 18.68494141 -5.24268555 17.71363281 -5.00146484 16.71289062 C-3.48710611 11.09846652 -1.71012983 5.55792195 0 0 Z " fill="#FDFDFD" transform="translate(204,174)"/>
<path d="M0 0 C15 0 15 0 19 2 C21.3765323 5.56479845 21.565955 6.79576285 21 11 C19.52696481 13.55599834 17.8534132 15.6832335 16 18 C18.31 21.3 20.62 24.6 23 28 C23.32798584 27.18732666 23.65597168 26.37465332 23.99389648 25.53735352 C25.20882606 22.53050512 26.42602057 19.52458685 27.64477539 16.51928711 C28.17238314 15.21692306 28.69907915 13.91418927 29.22485352 12.61108398 C29.97954912 10.74106066 30.73776804 8.87246046 31.49609375 7.00390625 C31.95169678 5.87799072 32.4072998 4.7520752 32.87670898 3.59204102 C34 1 34 1 35 0 C37.33297433 -0.04092937 39.66705225 -0.04241723 42 0 C43.57090902 3.94930174 45.13737167 7.90032854 46.69970703 11.85302734 C47.2320106 13.19791391 47.76553404 14.54231832 48.30029297 15.88623047 C49.06798081 17.81613217 49.8312893 19.74771573 50.59375 21.6796875 C51.05458984 22.84226074 51.51542969 24.00483398 51.99023438 25.20263672 C53 28 53 28 53 30 C51.02 30 49.04 30 47 30 C46.34 27.69 45.68 25.38 45 23 C40.38 23 35.76 23 31 23 C30.67 24.98 30.34 26.96 30 29 C27.65146305 31.34853695 23.25515993 30.75065121 20.15625 30.76171875 C15.96129042 29.74932133 14.86614349 28.06500265 12.4375 24.5625 C11.83808594 23.55316406 11.23867188 22.54382813 10.62109375 21.50390625 C9.18519955 18.71479262 9.18519955 18.71479262 6 18 C6 21.96 6 25.92 6 30 C4.02 30 2.04 30 0 30 C0 20.1 0 10.2 0 0 Z " fill="#F1F1F2" transform="translate(297,314)"/>
<path d="M0 0 C5.67507225 2.00296668 9.30675089 5.61350179 12 11 C12.54035594 15.9252115 12.54435469 19.86941718 10.375 24.375 C5.93379575 29.28369944 2.7101645 31.25983491 -3.9375 31.625 C-9.18420006 31.45554136 -11.97882324 30.36414427 -15.6953125 26.703125 C-19.48655356 21.75407979 -19.77925895 17.08014388 -19 11 C-14.91432932 2.82865865 -9.01308118 -0.90973156 0 0 Z " fill="#F2F2F3" transform="translate(280,313)"/>
<path d="M0 0 C2.31 0 4.62 0 7 0 C8.57328857 3.78753248 10.13966727 7.57784014 11.69970703 11.37084961 C12.23134392 12.66069346 12.76486022 13.94976435 13.30029297 15.23803711 C14.06972387 17.09023857 14.83183735 18.94547446 15.59375 20.80078125 C16.05458984 21.91622314 16.51542969 23.03166504 16.99023438 24.1809082 C18 27 18 27 18 30 C16.35 30 14.7 30 13 30 C12.01 28.02 11.02 26.04 10 24 C5.71 24 1.42 24 -3 24 C-3.66 25.98 -4.32 27.96 -5 30 C-6.98 30 -8.96 30 -11 30 C-8.10013622 19.64334364 -4.21206523 9.87942267 0 0 Z " fill="#F1F1F1" transform="translate(209,314)"/>
<path d="M0 0 C1.65 0 3.3 0 5 0 C5 10.23 5 20.46 5 31 C-0.62630021 29.87473996 -0.62630021 29.87473996 -3.296875 26.47265625 C-3.86277344 25.76302734 -4.42867187 25.05339844 -5.01171875 24.32226562 C-5.58535156 23.57654297 -6.15898437 22.83082031 -6.75 22.0625 C-7.33910156 21.32064453 -7.92820313 20.57878906 -8.53515625 19.81445312 C-12.78987196 14.42025608 -12.78987196 14.42025608 -14 12 C-14.33 18.27 -14.66 24.54 -15 31 C-16.65 31 -18.3 31 -20 31 C-20 21.1 -20 11.2 -20 1 C-15 1 -15 1 -13.36254883 2.43701172 C-12.89872803 3.09459473 -12.43490723 3.75217773 -11.95703125 4.4296875 C-11.44076172 5.14253906 -10.92449219 5.85539062 -10.39257812 6.58984375 C-9.87115234 7.34394531 -9.34972656 8.09804688 -8.8125 8.875 C-7.75749311 10.35226479 -6.70154452 11.82885765 -5.64453125 13.3046875 C-5.18409424 13.96452637 -4.72365723 14.62436523 -4.24926758 15.30419922 C-2.96862975 17.13130848 -2.96862975 17.13130848 -1 19 C-0.67 12.73 -0.34 6.46 0 0 Z " fill="#F3F3F4" transform="translate(251,313)"/>
<path d="M0 0 C15 0 15 0 20 3 C21.75554241 6.51108482 21.66564041 10.1775105 21 14 C18.07152746 17.77618828 18.07152746 17.77618828 15 19 C11.54866405 19.39032966 8.49389979 19.23607431 5 19 C5 22.63 5 26.26 5 30 C3.35 30 1.7 30 0 30 C0 20.1 0 10.2 0 0 Z " fill="#FAFAFA" transform="translate(154,314)"/>
<path d="M0 0 C2.65440745 2.13647429 3.77279376 3.53938848 4.30078125 6.93359375 C4.4463313 10.98601369 4.00820718 14.40636609 2 18 C-2.00633751 20.67089167 -5.28991428 20.70693873 -10 20 C-13.03215675 17.80168636 -13.81654398 16.55036806 -15 13 C-15.57279236 5.8973747 -15.57279236 5.8973747 -13.125 2.0625 C-9.05289345 -1.88983871 -5.28514995 -1.34240931 0 0 Z " fill="#23252C" transform="translate(282,319)"/>
<path d="M0 0 C1.65 0 3.3 0 5 0 C5 8.58 5 17.16 5 26 C8.96 26 12.92 26 17 26 C17 27.32 17 28.64 17 30 C11.39 30 5.78 30 0 30 C0 20.1 0 10.2 0 0 Z " fill="#FFFFFF" transform="translate(180,314)"/>
<path d="M0 0 C6.625 -0.25 6.625 -0.25 10 2 C10.375 5.5 10.375 5.5 10 9 C6.3558226 11.4294516 4.28758728 11.16179575 0 11 C0 7.37 0 3.74 0 0 Z " fill="#2A2C33" transform="translate(159,318)"/>
<path d="M0 0 C3.375 -0.125 3.375 -0.125 7 0 C9 2 9 2 9.3125 5 C9.1578125 6.485 9.1578125 6.485 9 8 C5.5647952 10.29013653 4.014669 10.17842973 0 10 C0 6.7 0 3.4 0 0 Z " fill="#24252C" transform="translate(303,318)"/>
<path d="M0 0 C3.62343383 3.78813537 4.04524538 8.00589889 5 13 C2.03 13 -0.94 13 -4 13 C-3.27991594 8.39146203 -1.68704061 4.32762591 0 0 Z " fill="#3A3C42" transform="translate(212,320)"/>
<path d="M0 0 C0.66 0 1.32 0 2 0 C2.50833591 1.24663331 3.00631145 2.49749387 3.5 3.75 C3.7784375 4.44609375 4.056875 5.1421875 4.34375 5.859375 C5 8 5 8 5 12 C2.36 12 -0.28 12 -3 12 C-2.68950274 10.56206608 -2.3765224 9.1246682 -2.0625 7.6875 C-1.88847656 6.88699219 -1.71445312 6.08648437 -1.53515625 5.26171875 C-1 3 -1 3 0 0 Z " fill="#313239" transform="translate(334,320)"/>
<path d="M0 0 C0.99 0.33 1.98 0.66 3 1 C4.1875 4.0625 4.1875 4.0625 5 7 C4.34 7 3.68 7 3 7 C3 6.34 3 5.68 3 5 C1.35 5.66 -0.3 6.32 -2 7 C-1.34 4.69 -0.68 2.38 0 0 Z " fill="#ADAEB1" transform="translate(206,356)"/>
<path d="M0 0 C0.66 0 1.32 0 2 0 C2.66 2.31 3.32 4.62 4 7 C1.525 6.01 1.525 6.01 -1 5 C-1 5.66 -1 6.32 -1 7 C-1.66 6.67 -2.32 6.34 -3 6 C-2.01 4.02 -1.02 2.04 0 0 Z " fill="#ACADB0" transform="translate(279,356)"/>
<path d="M0 0 C1.65 0 3.3 0 5 0 C4.01 0.33 3.02 0.66 2 1 C2 1.66 2 2.32 2 3 C2.99 3.33 3.98 3.66 5 4 C4.01 4 3.02 4 2 4 C2 4.66 2 5.32 2 6 C2.99 6.33 3.98 6.66 5 7 C3.35 7 1.7 7 0 7 C0 4.69 0 2.38 0 0 Z " fill="#ABACAF" transform="translate(234,356)"/>
</svg>
